<mxfile host="app.diagrams.net" modified="2023-05-17T20:35:13.453Z" agent="Mozilla/5.0 (Windows NT 10.0; Win64; x64) AppleWebKit/537.36 (KHTML, like Gecko) Chrome/113.0.0.0 Safari/537.36" etag="U09VfdrCOMGqTXFs8oO9" version="21.3.2" type="github" pages="2">
  <diagram name="Page-1" id="L4qbPcJhnl6m2RNug5sy">
    <mxGraphModel dx="1886" dy="573" grid="1" gridSize="10" guides="1" tooltips="1" connect="1" arrows="1" fold="1" page="1" pageScale="1" pageWidth="850" pageHeight="1400" math="0" shadow="0">
      <root>
        <mxCell id="0" />
        <mxCell id="1" parent="0" />
        <mxCell id="td9tHSMJPEGnrsI-MGj0-1" value="Region" style="points=[[0,0],[0.25,0],[0.5,0],[0.75,0],[1,0],[1,0.25],[1,0.5],[1,0.75],[1,1],[0.75,1],[0.5,1],[0.25,1],[0,1],[0,0.75],[0,0.5],[0,0.25]];outlineConnect=0;gradientColor=none;html=1;whiteSpace=wrap;fontSize=12;fontStyle=0;container=1;pointerEvents=0;collapsible=0;recursiveResize=0;shape=mxgraph.aws4.group;grIcon=mxgraph.aws4.group_region;strokeColor=#147EBA;fillColor=none;verticalAlign=top;align=left;spacingLeft=30;fontColor=#147EBA;dashed=1;" vertex="1" parent="1">
          <mxGeometry x="30" y="10" width="812.25" height="540" as="geometry" />
        </mxCell>
        <mxCell id="td9tHSMJPEGnrsI-MGj0-3" value="N.Virginia" style="text;strokeColor=none;align=center;fillColor=none;html=1;verticalAlign=middle;whiteSpace=wrap;rounded=0;" vertex="1" parent="td9tHSMJPEGnrsI-MGj0-1">
          <mxGeometry x="70" width="50" height="30" as="geometry" />
        </mxCell>
        <mxCell id="td9tHSMJPEGnrsI-MGj0-11" value="" style="outlineConnect=0;dashed=0;verticalLabelPosition=bottom;verticalAlign=top;align=center;html=1;shape=mxgraph.aws3.iam;fillColor=#759C3E;gradientColor=none;" vertex="1" parent="td9tHSMJPEGnrsI-MGj0-1">
          <mxGeometry x="750" y="20" width="42" height="50" as="geometry" />
        </mxCell>
        <mxCell id="td9tHSMJPEGnrsI-MGj0-10" value="IAM" style="text;strokeColor=none;align=center;fillColor=none;html=1;verticalAlign=middle;whiteSpace=wrap;rounded=0;" vertex="1" parent="td9tHSMJPEGnrsI-MGj0-1">
          <mxGeometry x="741" y="60" width="60" height="30" as="geometry" />
        </mxCell>
        <mxCell id="td9tHSMJPEGnrsI-MGj0-12" value="" style="outlineConnect=0;dashed=0;verticalLabelPosition=bottom;verticalAlign=top;align=center;html=1;shape=mxgraph.aws3.cloudwatch;fillColor=#a20025;fontColor=#ffffff;strokeColor=#6F0000;" vertex="1" parent="td9tHSMJPEGnrsI-MGj0-1">
          <mxGeometry x="729.75" y="110" width="82.5" height="60" as="geometry" />
        </mxCell>
        <mxCell id="td9tHSMJPEGnrsI-MGj0-13" value="CloudWatch" style="text;strokeColor=none;align=center;fillColor=none;html=1;verticalAlign=middle;whiteSpace=wrap;rounded=0;" vertex="1" parent="td9tHSMJPEGnrsI-MGj0-1">
          <mxGeometry x="741" y="170" width="60" height="30" as="geometry" />
        </mxCell>
        <mxCell id="td9tHSMJPEGnrsI-MGj0-56" value="Lillie&#39;s Architecture" style="text;strokeColor=none;align=center;fillColor=none;html=1;verticalAlign=middle;whiteSpace=wrap;rounded=0;" vertex="1" parent="td9tHSMJPEGnrsI-MGj0-1">
          <mxGeometry x="310" width="120" height="30" as="geometry" />
        </mxCell>
        <mxCell id="td9tHSMJPEGnrsI-MGj0-57" value="" style="sketch=0;outlineConnect=0;fontColor=#232F3E;gradientColor=none;fillColor=#D45B07;strokeColor=none;dashed=0;verticalLabelPosition=bottom;verticalAlign=top;align=center;html=1;fontSize=12;fontStyle=0;aspect=fixed;pointerEvents=1;shape=mxgraph.aws4.auto_scaling2;" vertex="1" parent="td9tHSMJPEGnrsI-MGj0-1">
          <mxGeometry x="350" y="220" width="70" height="70" as="geometry" />
        </mxCell>
        <mxCell id="td9tHSMJPEGnrsI-MGj0-58" value="Auto-Scaling" style="text;strokeColor=none;align=center;fillColor=none;html=1;verticalAlign=middle;whiteSpace=wrap;rounded=0;" vertex="1" parent="td9tHSMJPEGnrsI-MGj0-1">
          <mxGeometry x="376.13" y="270" width="60" height="30" as="geometry" />
        </mxCell>
        <mxCell id="td9tHSMJPEGnrsI-MGj0-50" value="" style="sketch=0;points=[[0,0,0],[0.25,0,0],[0.5,0,0],[0.75,0,0],[1,0,0],[0,1,0],[0.25,1,0],[0.5,1,0],[0.75,1,0],[1,1,0],[0,0.25,0],[0,0.5,0],[0,0.75,0],[1,0.25,0],[1,0.5,0],[1,0.75,0]];outlineConnect=0;fontColor=#232F3E;gradientColor=#60A337;gradientDirection=north;fillColor=#277116;strokeColor=#ffffff;dashed=0;verticalLabelPosition=bottom;verticalAlign=top;align=center;html=1;fontSize=12;fontStyle=0;aspect=fixed;shape=mxgraph.aws4.resourceIcon;resIcon=mxgraph.aws4.s3;" vertex="1" parent="td9tHSMJPEGnrsI-MGj0-1">
          <mxGeometry x="738" y="212" width="58" height="58" as="geometry" />
        </mxCell>
        <mxCell id="td9tHSMJPEGnrsI-MGj0-76" value="" style="sketch=0;outlineConnect=0;fontColor=#232F3E;gradientColor=none;fillColor=#4D27AA;strokeColor=none;dashed=0;verticalLabelPosition=bottom;verticalAlign=top;align=center;html=1;fontSize=12;fontStyle=0;aspect=fixed;pointerEvents=1;shape=mxgraph.aws4.route_53_resolver_dns_firewall;" vertex="1" parent="td9tHSMJPEGnrsI-MGj0-1">
          <mxGeometry x="746" y="340" width="50" height="50" as="geometry" />
        </mxCell>
        <mxCell id="td9tHSMJPEGnrsI-MGj0-77" value="Route 53" style="text;strokeColor=none;align=center;fillColor=none;html=1;verticalAlign=middle;whiteSpace=wrap;rounded=0;" vertex="1" parent="td9tHSMJPEGnrsI-MGj0-1">
          <mxGeometry x="746" y="390" width="60" height="30" as="geometry" />
        </mxCell>
        <mxCell id="td9tHSMJPEGnrsI-MGj0-79" value="S3" style="text;strokeColor=none;align=center;fillColor=none;html=1;verticalAlign=middle;whiteSpace=wrap;rounded=0;" vertex="1" parent="td9tHSMJPEGnrsI-MGj0-1">
          <mxGeometry x="738" y="270" width="60" height="30" as="geometry" />
        </mxCell>
        <mxCell id="td9tHSMJPEGnrsI-MGj0-7" value="VPC" style="points=[[0,0],[0.25,0],[0.5,0],[0.75,0],[1,0],[1,0.25],[1,0.5],[1,0.75],[1,1],[0.75,1],[0.5,1],[0.25,1],[0,1],[0,0.75],[0,0.5],[0,0.25]];outlineConnect=0;gradientColor=none;html=1;whiteSpace=wrap;fontSize=12;fontStyle=0;container=1;pointerEvents=0;collapsible=0;recursiveResize=0;shape=mxgraph.aws4.group;grIcon=mxgraph.aws4.group_vpc;strokeColor=#248814;fillColor=none;verticalAlign=top;align=left;spacingLeft=30;fontColor=#AAB7B8;dashed=0;" vertex="1" parent="1">
          <mxGeometry x="60" y="40" width="700" height="490" as="geometry" />
        </mxCell>
        <mxCell id="td9tHSMJPEGnrsI-MGj0-8" value="Static-Web" style="text;strokeColor=none;align=center;fillColor=none;html=1;verticalAlign=middle;whiteSpace=wrap;rounded=0;" vertex="1" parent="td9tHSMJPEGnrsI-MGj0-7">
          <mxGeometry x="50" width="70" height="30" as="geometry" />
        </mxCell>
        <mxCell id="td9tHSMJPEGnrsI-MGj0-14" value="Availability Zone" style="fillColor=none;strokeColor=#FF0080;dashed=1;verticalAlign=top;fontStyle=0;fontColor=#147EBA;whiteSpace=wrap;html=1;" vertex="1" parent="td9tHSMJPEGnrsI-MGj0-7">
          <mxGeometry x="20" y="20" width="640" height="180" as="geometry" />
        </mxCell>
        <mxCell id="td9tHSMJPEGnrsI-MGj0-16" value="Availability Zone" style="fillColor=none;strokeColor=#FF0080;dashed=1;verticalAlign=top;fontStyle=0;fontColor=#147EBA;whiteSpace=wrap;html=1;" vertex="1" parent="td9tHSMJPEGnrsI-MGj0-7">
          <mxGeometry x="20" y="280" width="640" height="180" as="geometry" />
        </mxCell>
        <mxCell id="td9tHSMJPEGnrsI-MGj0-17" value="us-east-1a" style="text;strokeColor=none;align=center;fillColor=none;html=1;verticalAlign=middle;whiteSpace=wrap;rounded=0;" vertex="1" parent="td9tHSMJPEGnrsI-MGj0-7">
          <mxGeometry x="230" y="20" width="60" height="30" as="geometry" />
        </mxCell>
        <mxCell id="td9tHSMJPEGnrsI-MGj0-18" value="us-east-1b" style="text;strokeColor=none;align=center;fillColor=none;html=1;verticalAlign=middle;whiteSpace=wrap;rounded=0;" vertex="1" parent="td9tHSMJPEGnrsI-MGj0-7">
          <mxGeometry x="230" y="280" width="60" height="30" as="geometry" />
        </mxCell>
        <mxCell id="td9tHSMJPEGnrsI-MGj0-19" value="Public subnet" style="points=[[0,0],[0.25,0],[0.5,0],[0.75,0],[1,0],[1,0.25],[1,0.5],[1,0.75],[1,1],[0.75,1],[0.5,1],[0.25,1],[0,1],[0,0.75],[0,0.5],[0,0.25]];outlineConnect=0;html=1;whiteSpace=wrap;fontSize=12;fontStyle=0;container=1;pointerEvents=0;collapsible=0;recursiveResize=0;shape=mxgraph.aws4.group;grIcon=mxgraph.aws4.group_security_group;grStroke=0;strokeColor=#BD7000;fillColor=#f0a30a;verticalAlign=top;align=left;spacingLeft=30;fontColor=#000000;dashed=0;" vertex="1" parent="td9tHSMJPEGnrsI-MGj0-7">
          <mxGeometry x="50" y="40" width="130" height="150" as="geometry" />
        </mxCell>
        <mxCell id="td9tHSMJPEGnrsI-MGj0-37" value="ALB" style="text;strokeColor=none;align=center;fillColor=none;html=1;verticalAlign=middle;whiteSpace=wrap;rounded=0;" vertex="1" parent="td9tHSMJPEGnrsI-MGj0-19">
          <mxGeometry x="50" y="40" width="30" height="30" as="geometry" />
        </mxCell>
        <mxCell id="td9tHSMJPEGnrsI-MGj0-39" value="" style="sketch=0;outlineConnect=0;fontColor=#232F3E;gradientColor=none;fillColor=#4D27AA;strokeColor=none;dashed=0;verticalLabelPosition=bottom;verticalAlign=top;align=center;html=1;fontSize=12;fontStyle=0;aspect=fixed;pointerEvents=1;shape=mxgraph.aws4.nat_gateway;" vertex="1" parent="td9tHSMJPEGnrsI-MGj0-19">
          <mxGeometry x="5" y="110" width="40" height="40" as="geometry" />
        </mxCell>
        <mxCell id="td9tHSMJPEGnrsI-MGj0-41" value="NAT gateway" style="text;strokeColor=none;align=center;fillColor=none;html=1;verticalAlign=middle;whiteSpace=wrap;rounded=0;" vertex="1" parent="td9tHSMJPEGnrsI-MGj0-19">
          <mxGeometry x="40" y="120" width="50" height="30" as="geometry" />
        </mxCell>
        <mxCell id="td9tHSMJPEGnrsI-MGj0-22" value="Public subnet" style="points=[[0,0],[0.25,0],[0.5,0],[0.75,0],[1,0],[1,0.25],[1,0.5],[1,0.75],[1,1],[0.75,1],[0.5,1],[0.25,1],[0,1],[0,0.75],[0,0.5],[0,0.25]];outlineConnect=0;html=1;whiteSpace=wrap;fontSize=12;fontStyle=0;container=1;pointerEvents=0;collapsible=0;recursiveResize=0;shape=mxgraph.aws4.group;grIcon=mxgraph.aws4.group_security_group;grStroke=0;strokeColor=#BD7000;fillColor=#f0a30a;verticalAlign=top;align=left;spacingLeft=30;fontColor=#000000;dashed=0;" vertex="1" parent="td9tHSMJPEGnrsI-MGj0-7">
          <mxGeometry x="50" y="295" width="130" height="150" as="geometry" />
        </mxCell>
        <mxCell id="td9tHSMJPEGnrsI-MGj0-38" value="ALB" style="text;strokeColor=none;align=center;fillColor=none;html=1;verticalAlign=middle;whiteSpace=wrap;rounded=0;" vertex="1" parent="td9tHSMJPEGnrsI-MGj0-22">
          <mxGeometry x="50" y="45" width="30" height="30" as="geometry" />
        </mxCell>
        <mxCell id="td9tHSMJPEGnrsI-MGj0-23" value="tier 1" style="text;strokeColor=none;align=center;fillColor=none;html=1;verticalAlign=middle;whiteSpace=wrap;rounded=0;" vertex="1" parent="td9tHSMJPEGnrsI-MGj0-7">
          <mxGeometry x="90" y="50" width="30" height="30" as="geometry" />
        </mxCell>
        <mxCell id="td9tHSMJPEGnrsI-MGj0-24" value="tier 2" style="text;strokeColor=none;align=center;fillColor=none;html=1;verticalAlign=middle;whiteSpace=wrap;rounded=0;" vertex="1" parent="td9tHSMJPEGnrsI-MGj0-7">
          <mxGeometry x="80" y="310" width="30" height="30" as="geometry" />
        </mxCell>
        <mxCell id="td9tHSMJPEGnrsI-MGj0-25" value="Private subnet" style="points=[[0,0],[0.25,0],[0.5,0],[0.75,0],[1,0],[1,0.25],[1,0.5],[1,0.75],[1,1],[0.75,1],[0.5,1],[0.25,1],[0,1],[0,0.75],[0,0.5],[0,0.25]];outlineConnect=0;html=1;whiteSpace=wrap;fontSize=12;fontStyle=0;container=1;pointerEvents=0;collapsible=0;recursiveResize=0;shape=mxgraph.aws4.group;grIcon=mxgraph.aws4.group_security_group;grStroke=0;strokeColor=#36393d;fillColor=#ffcccc;verticalAlign=top;align=left;spacingLeft=30;dashed=0;" vertex="1" parent="td9tHSMJPEGnrsI-MGj0-7">
          <mxGeometry x="260" y="300" width="130" height="145" as="geometry" />
        </mxCell>
        <mxCell id="td9tHSMJPEGnrsI-MGj0-47" value="EC2 instance contents" style="points=[[0,0],[0.25,0],[0.5,0],[0.75,0],[1,0],[1,0.25],[1,0.5],[1,0.75],[1,1],[0.75,1],[0.5,1],[0.25,1],[0,1],[0,0.75],[0,0.5],[0,0.25]];outlineConnect=0;html=1;whiteSpace=wrap;fontSize=12;fontStyle=0;container=1;pointerEvents=0;collapsible=0;recursiveResize=0;shape=mxgraph.aws4.group;grIcon=mxgraph.aws4.group_ec2_instance_contents;strokeColor=#36393d;fillColor=#cdeb8b;verticalAlign=top;align=left;spacingLeft=30;dashed=0;" vertex="1" parent="td9tHSMJPEGnrsI-MGj0-25">
          <mxGeometry y="50" width="130" height="80" as="geometry" />
        </mxCell>
        <mxCell id="td9tHSMJPEGnrsI-MGj0-27" value="Private subnet" style="points=[[0,0],[0.25,0],[0.5,0],[0.75,0],[1,0],[1,0.25],[1,0.5],[1,0.75],[1,1],[0.75,1],[0.5,1],[0.25,1],[0,1],[0,0.75],[0,0.5],[0,0.25]];outlineConnect=0;html=1;whiteSpace=wrap;fontSize=12;fontStyle=0;container=1;pointerEvents=0;collapsible=0;recursiveResize=0;shape=mxgraph.aws4.group;grIcon=mxgraph.aws4.group_security_group;grStroke=0;strokeColor=#36393d;fillColor=#ffcccc;verticalAlign=top;align=left;spacingLeft=30;dashed=0;" vertex="1" parent="td9tHSMJPEGnrsI-MGj0-7">
          <mxGeometry x="270" y="45" width="130" height="145" as="geometry" />
        </mxCell>
        <mxCell id="td9tHSMJPEGnrsI-MGj0-28" value="tier 2" style="text;strokeColor=none;align=center;fillColor=none;html=1;verticalAlign=middle;whiteSpace=wrap;rounded=0;" vertex="1" parent="td9tHSMJPEGnrsI-MGj0-27">
          <mxGeometry x="10" y="15" width="60" height="30" as="geometry" />
        </mxCell>
        <mxCell id="td9tHSMJPEGnrsI-MGj0-29" value="tier 2" style="text;strokeColor=none;align=center;fillColor=none;html=1;verticalAlign=middle;whiteSpace=wrap;rounded=0;" vertex="1" parent="td9tHSMJPEGnrsI-MGj0-7">
          <mxGeometry x="280" y="310" width="60" height="30" as="geometry" />
        </mxCell>
        <mxCell id="td9tHSMJPEGnrsI-MGj0-30" value="Private subnet" style="points=[[0,0],[0.25,0],[0.5,0],[0.75,0],[1,0],[1,0.25],[1,0.5],[1,0.75],[1,1],[0.75,1],[0.5,1],[0.25,1],[0,1],[0,0.75],[0,0.5],[0,0.25]];outlineConnect=0;gradientColor=none;html=1;whiteSpace=wrap;fontSize=12;fontStyle=0;container=1;pointerEvents=0;collapsible=0;recursiveResize=0;shape=mxgraph.aws4.group;grIcon=mxgraph.aws4.group_security_group;grStroke=0;strokeColor=#147EBA;fillColor=#E6F2F8;verticalAlign=top;align=left;spacingLeft=30;fontColor=#147EBA;dashed=0;" vertex="1" parent="td9tHSMJPEGnrsI-MGj0-7">
          <mxGeometry x="450" y="45" width="130" height="145" as="geometry" />
        </mxCell>
        <mxCell id="td9tHSMJPEGnrsI-MGj0-55" value="Database" style="text;strokeColor=none;align=center;fillColor=none;html=1;verticalAlign=middle;whiteSpace=wrap;rounded=0;" vertex="1" parent="td9tHSMJPEGnrsI-MGj0-30">
          <mxGeometry x="50" y="95" width="50" height="30" as="geometry" />
        </mxCell>
        <mxCell id="td9tHSMJPEGnrsI-MGj0-32" value="Private subnet" style="points=[[0,0],[0.25,0],[0.5,0],[0.75,0],[1,0],[1,0.25],[1,0.5],[1,0.75],[1,1],[0.75,1],[0.5,1],[0.25,1],[0,1],[0,0.75],[0,0.5],[0,0.25]];outlineConnect=0;gradientColor=none;html=1;whiteSpace=wrap;fontSize=12;fontStyle=0;container=1;pointerEvents=0;collapsible=0;recursiveResize=0;shape=mxgraph.aws4.group;grIcon=mxgraph.aws4.group_security_group;grStroke=0;strokeColor=#147EBA;fillColor=#E6F2F8;verticalAlign=top;align=left;spacingLeft=30;fontColor=#147EBA;dashed=0;" vertex="1" parent="td9tHSMJPEGnrsI-MGj0-7">
          <mxGeometry x="460" y="297.5" width="130" height="145" as="geometry" />
        </mxCell>
        <mxCell id="td9tHSMJPEGnrsI-MGj0-33" value="tier 3" style="text;strokeColor=none;align=center;fillColor=none;html=1;verticalAlign=middle;whiteSpace=wrap;rounded=0;" vertex="1" parent="td9tHSMJPEGnrsI-MGj0-7">
          <mxGeometry x="480" y="60" width="30" height="30" as="geometry" />
        </mxCell>
        <mxCell id="td9tHSMJPEGnrsI-MGj0-34" value="tier 3" style="text;strokeColor=none;align=center;fillColor=none;html=1;verticalAlign=middle;whiteSpace=wrap;rounded=0;" vertex="1" parent="td9tHSMJPEGnrsI-MGj0-7">
          <mxGeometry x="490" y="310" width="30" height="30" as="geometry" />
        </mxCell>
        <mxCell id="td9tHSMJPEGnrsI-MGj0-36" value="" style="outlineConnect=0;dashed=0;verticalLabelPosition=bottom;verticalAlign=top;align=center;html=1;shape=mxgraph.aws3.application_load_balancer;fillColor=#1A1A1A;gradientColor=none;strokeColor=#000000;" vertex="1" parent="td9tHSMJPEGnrsI-MGj0-7">
          <mxGeometry x="50" y="330" width="50" height="50" as="geometry" />
        </mxCell>
        <mxCell id="td9tHSMJPEGnrsI-MGj0-35" value="" style="outlineConnect=0;dashed=0;verticalLabelPosition=bottom;verticalAlign=top;align=center;html=1;shape=mxgraph.aws3.application_load_balancer;fillColor=#1A1A1A;gradientColor=none;" vertex="1" parent="td9tHSMJPEGnrsI-MGj0-7">
          <mxGeometry x="50" y="70" width="50" height="50" as="geometry" />
        </mxCell>
        <mxCell id="td9tHSMJPEGnrsI-MGj0-40" value="" style="sketch=0;outlineConnect=0;fontColor=#232F3E;gradientColor=none;fillColor=#4D27AA;strokeColor=none;dashed=0;verticalLabelPosition=bottom;verticalAlign=top;align=center;html=1;fontSize=12;fontStyle=0;aspect=fixed;pointerEvents=1;shape=mxgraph.aws4.nat_gateway;" vertex="1" parent="td9tHSMJPEGnrsI-MGj0-7">
          <mxGeometry x="50" y="405" width="40" height="40" as="geometry" />
        </mxCell>
        <mxCell id="td9tHSMJPEGnrsI-MGj0-42" value="NAT gateway" style="text;strokeColor=none;align=center;fillColor=none;html=1;verticalAlign=middle;whiteSpace=wrap;rounded=0;" vertex="1" parent="td9tHSMJPEGnrsI-MGj0-7">
          <mxGeometry x="80" y="415" width="50" height="30" as="geometry" />
        </mxCell>
        <mxCell id="td9tHSMJPEGnrsI-MGj0-43" value="" style="sketch=0;outlineConnect=0;fontColor=#232F3E;gradientColor=none;fillColor=#4D27AA;strokeColor=none;dashed=0;verticalLabelPosition=bottom;verticalAlign=top;align=center;html=1;fontSize=12;fontStyle=0;aspect=fixed;pointerEvents=1;shape=mxgraph.aws4.internet_gateway;" vertex="1" parent="td9tHSMJPEGnrsI-MGj0-7">
          <mxGeometry x="-20" y="220" width="50" height="50" as="geometry" />
        </mxCell>
        <mxCell id="td9tHSMJPEGnrsI-MGj0-44" value="IGW" style="text;strokeColor=none;align=center;fillColor=none;html=1;verticalAlign=middle;whiteSpace=wrap;rounded=0;" vertex="1" parent="td9tHSMJPEGnrsI-MGj0-7">
          <mxGeometry y="260" width="30" height="30" as="geometry" />
        </mxCell>
        <mxCell id="td9tHSMJPEGnrsI-MGj0-45" value="EC2 instance contents" style="points=[[0,0],[0.25,0],[0.5,0],[0.75,0],[1,0],[1,0.25],[1,0.5],[1,0.75],[1,1],[0.75,1],[0.5,1],[0.25,1],[0,1],[0,0.75],[0,0.5],[0,0.25]];outlineConnect=0;html=1;whiteSpace=wrap;fontSize=12;fontStyle=0;container=1;pointerEvents=0;collapsible=0;recursiveResize=0;shape=mxgraph.aws4.group;grIcon=mxgraph.aws4.group_ec2_instance_contents;strokeColor=#36393d;fillColor=#cdeb8b;verticalAlign=top;align=left;spacingLeft=30;dashed=0;" vertex="1" parent="td9tHSMJPEGnrsI-MGj0-7">
          <mxGeometry x="270" y="80" width="130" height="80" as="geometry" />
        </mxCell>
        <mxCell id="td9tHSMJPEGnrsI-MGj0-49" value="Web-server" style="text;strokeColor=none;align=center;fillColor=none;html=1;verticalAlign=middle;whiteSpace=wrap;rounded=0;" vertex="1" parent="td9tHSMJPEGnrsI-MGj0-7">
          <mxGeometry x="270" y="400" width="60" height="30" as="geometry" />
        </mxCell>
        <mxCell id="td9tHSMJPEGnrsI-MGj0-48" value="Web-server" style="text;strokeColor=none;align=center;fillColor=none;html=1;verticalAlign=middle;whiteSpace=wrap;rounded=0;" vertex="1" parent="td9tHSMJPEGnrsI-MGj0-7">
          <mxGeometry x="270" y="130" width="60" height="30" as="geometry" />
        </mxCell>
        <mxCell id="td9tHSMJPEGnrsI-MGj0-59" value="" style="image;aspect=fixed;html=1;points=[];align=center;fontSize=12;image=img/lib/azure2/networking/Route_Tables.svg;" vertex="1" parent="td9tHSMJPEGnrsI-MGj0-7">
          <mxGeometry x="270" y="210" width="41.29" height="40" as="geometry" />
        </mxCell>
        <mxCell id="td9tHSMJPEGnrsI-MGj0-60" value="" style="image;aspect=fixed;html=1;points=[];align=center;fontSize=12;image=img/lib/azure2/networking/Route_Tables.svg;" vertex="1" parent="td9tHSMJPEGnrsI-MGj0-7">
          <mxGeometry x="64.36000000000001" y="210" width="41.29" height="40" as="geometry" />
        </mxCell>
        <mxCell id="td9tHSMJPEGnrsI-MGj0-61" value="Main RT" style="text;strokeColor=none;align=center;fillColor=none;html=1;verticalAlign=middle;whiteSpace=wrap;rounded=0;" vertex="1" parent="td9tHSMJPEGnrsI-MGj0-7">
          <mxGeometry x="270" y="240" width="50" height="30" as="geometry" />
        </mxCell>
        <mxCell id="td9tHSMJPEGnrsI-MGj0-62" value="Public RT" style="text;strokeColor=none;align=center;fillColor=none;html=1;verticalAlign=middle;whiteSpace=wrap;rounded=0;" vertex="1" parent="td9tHSMJPEGnrsI-MGj0-7">
          <mxGeometry x="60" y="240" width="60" height="30" as="geometry" />
        </mxCell>
        <mxCell id="td9tHSMJPEGnrsI-MGj0-54" value="" style="image;html=1;image=img/lib/clip_art/computers/Database_128x128.png" vertex="1" parent="td9tHSMJPEGnrsI-MGj0-7">
          <mxGeometry x="466" y="90" width="44" height="80" as="geometry" />
        </mxCell>
        <mxCell id="td9tHSMJPEGnrsI-MGj0-68" value="" style="image;html=1;image=img/lib/clip_art/computers/Database_128x128.png" vertex="1" parent="td9tHSMJPEGnrsI-MGj0-7">
          <mxGeometry x="460" y="340" width="80" height="60" as="geometry" />
        </mxCell>
        <mxCell id="td9tHSMJPEGnrsI-MGj0-74" value="" style="edgeStyle=none;orthogonalLoop=1;jettySize=auto;html=1;rounded=0;entryX=0;entryY=1;entryDx=0;entryDy=0;" edge="1" parent="td9tHSMJPEGnrsI-MGj0-7" target="td9tHSMJPEGnrsI-MGj0-41">
          <mxGeometry width="80" relative="1" as="geometry">
            <mxPoint x="90" y="244.5" as="sourcePoint" />
            <mxPoint x="170" y="244.5" as="targetPoint" />
            <Array as="points" />
          </mxGeometry>
        </mxCell>
        <mxCell id="td9tHSMJPEGnrsI-MGj0-75" value="" style="edgeStyle=none;orthogonalLoop=1;jettySize=auto;html=1;rounded=0;entryX=0.5;entryY=0;entryDx=0;entryDy=0;" edge="1" parent="td9tHSMJPEGnrsI-MGj0-7" target="td9tHSMJPEGnrsI-MGj0-44">
          <mxGeometry width="80" relative="1" as="geometry">
            <mxPoint x="100" y="254.5" as="sourcePoint" />
            <mxPoint x="180" y="254.5" as="targetPoint" />
            <Array as="points">
              <mxPoint x="100" y="290" />
            </Array>
          </mxGeometry>
        </mxCell>
        <mxCell id="td9tHSMJPEGnrsI-MGj0-78" value="Database" style="text;strokeColor=none;align=center;fillColor=none;html=1;verticalAlign=middle;whiteSpace=wrap;rounded=0;" vertex="1" parent="td9tHSMJPEGnrsI-MGj0-7">
          <mxGeometry x="480" y="385" width="50" height="30" as="geometry" />
        </mxCell>
        <mxCell id="td9tHSMJPEGnrsI-MGj0-63" value="" style="rounded=1;arcSize=10;dashed=1;strokeColor=#ff0000;fillColor=none;gradientColor=none;dashPattern=8 4;strokeWidth=2;" vertex="1" parent="1">
          <mxGeometry x="310" y="70" width="160" height="430" as="geometry" />
        </mxCell>
        <mxCell id="td9tHSMJPEGnrsI-MGj0-64" value="SG" style="text;strokeColor=none;align=center;fillColor=none;html=1;verticalAlign=middle;whiteSpace=wrap;rounded=0;" vertex="1" parent="1">
          <mxGeometry x="450" y="240" width="40" height="20" as="geometry" />
        </mxCell>
        <mxCell id="td9tHSMJPEGnrsI-MGj0-66" value="" style="verticalLabelPosition=bottom;shadow=0;dashed=0;align=center;html=1;verticalAlign=top;strokeWidth=1;shape=mxgraph.mockup.containers.userFemale;strokeColor=#666666;strokeColor2=#008cff;" vertex="1" parent="1">
          <mxGeometry x="-80" y="340" width="90" height="100" as="geometry" />
        </mxCell>
        <mxCell id="td9tHSMJPEGnrsI-MGj0-67" value="End-user" style="text;strokeColor=none;align=center;fillColor=none;html=1;verticalAlign=middle;whiteSpace=wrap;rounded=0;" vertex="1" parent="1">
          <mxGeometry x="-85" y="450" width="60" height="30" as="geometry" />
        </mxCell>
        <mxCell id="td9tHSMJPEGnrsI-MGj0-69" value="" style="edgeStyle=none;orthogonalLoop=1;jettySize=auto;html=1;rounded=0;exitX=0.313;exitY=0.488;exitDx=0;exitDy=0;exitPerimeter=0;entryX=0;entryY=0.75;entryDx=0;entryDy=0;" edge="1" parent="1" source="td9tHSMJPEGnrsI-MGj0-63" target="td9tHSMJPEGnrsI-MGj0-54">
          <mxGeometry width="80" relative="1" as="geometry">
            <mxPoint x="420" y="300" as="sourcePoint" />
            <mxPoint x="500" y="300" as="targetPoint" />
            <Array as="points" />
          </mxGeometry>
        </mxCell>
        <mxCell id="td9tHSMJPEGnrsI-MGj0-70" value="" style="edgeStyle=none;orthogonalLoop=1;jettySize=auto;html=1;rounded=0;exitX=0.313;exitY=0.488;exitDx=0;exitDy=0;exitPerimeter=0;entryX=0;entryY=0.75;entryDx=0;entryDy=0;" edge="1" parent="1" target="td9tHSMJPEGnrsI-MGj0-34">
          <mxGeometry width="80" relative="1" as="geometry">
            <mxPoint x="370" y="290" as="sourcePoint" />
            <mxPoint x="536" y="200" as="targetPoint" />
            <Array as="points" />
          </mxGeometry>
        </mxCell>
        <mxCell id="td9tHSMJPEGnrsI-MGj0-71" value="" style="edgeStyle=none;orthogonalLoop=1;jettySize=auto;html=1;rounded=0;exitX=0.313;exitY=0.488;exitDx=0;exitDy=0;exitPerimeter=0;entryX=0.438;entryY=0.605;entryDx=0;entryDy=0;entryPerimeter=0;" edge="1" parent="1" target="td9tHSMJPEGnrsI-MGj0-63">
          <mxGeometry width="80" relative="1" as="geometry">
            <mxPoint x="380" y="300" as="sourcePoint" />
            <mxPoint x="560" y="383" as="targetPoint" />
            <Array as="points" />
          </mxGeometry>
        </mxCell>
        <mxCell id="td9tHSMJPEGnrsI-MGj0-73" value="" style="edgeStyle=none;orthogonalLoop=1;jettySize=auto;html=1;rounded=0;entryX=0.313;entryY=0.326;entryDx=0;entryDy=0;entryPerimeter=0;" edge="1" parent="1" target="td9tHSMJPEGnrsI-MGj0-63">
          <mxGeometry width="80" relative="1" as="geometry">
            <mxPoint x="360" y="270" as="sourcePoint" />
            <mxPoint x="440" y="270" as="targetPoint" />
            <Array as="points" />
          </mxGeometry>
        </mxCell>
      </root>
    </mxGraphModel>
  </diagram>
  <diagram id="lLtQaPMRkeUDsMdp6mJJ" name="Page-2">
    <mxGraphModel dx="1050" dy="573" grid="1" gridSize="10" guides="1" tooltips="1" connect="1" arrows="1" fold="1" page="1" pageScale="1" pageWidth="850" pageHeight="1100" math="0" shadow="0">
      <root>
        <mxCell id="0" />
        <mxCell id="1" parent="0" />
      </root>
    </mxGraphModel>
  </diagram>
</mxfile>
